<?xml version="1.0" encoding="utf-8"?>
<!-- Generator: Adobe Illustrator 15.0.0, SVG Export Plug-In . SVG Version: 6.00 Build 0)  -->
<!DOCTYPE svg PUBLIC "-//W3C//DTD SVG 1.1//EN" "http://www.w3.org/Graphics/SVG/1.1/DTD/svg11.dtd">
<svg version="1.1" id="Calque_2" xmlns="http://www.w3.org/2000/svg" xmlns:xlink="http://www.w3.org/1999/xlink" x="0px" y="0px"
	 width="578.143px" height="568.271px" viewBox="0 0 578.143 568.271" enable-background="new 0 0 578.143 568.271"
	 xml:space="preserve">
<g id="Calque_3" display="none">
</g>
<rect x="126.622" y="127.108" display="none" fill="#1C0809" width="330" height="307.5"/>
<path fill="#FFFFFF" d="M538.912,373.988c-1.154-49.965,4.365-71.608,2.644-122.013C536.691,110.906,426.074-18.898,240.921,2.278
	C56.401,23.267-14.613,169.875,2.459,322.93c9.522,85.36,92.856,245.341,252.247,245.341c174.892,0,323.438-100.338,323.438-100.338
	S539.966,422.205,538.912,373.988z M248.277,211.701c2.727-2.724,2.727-2.724,8.175,0l16.344,10.897v-84.451
	c0-2.722,2.722-10.895,10.898-10.895h8.171c8.171,0,13.621,2.724,13.621,10.895v87.174l16.342-13.621
	c2.728-2.724,2.728-2.724,2.728,0c2.726,5.45,2.726,5.45,0,8.174l-35.413,32.69h-2.726h-2.723l-35.417-32.69
	C248.277,217.151,248.277,211.701,248.277,211.701z M210.141,475.951c-24.518,0-40.865-16.349-40.865-40.865
	c0-24.522,21.794-40.862,40.865-40.862c24.516,0,40.862,16.34,40.862,40.862C251.003,459.602,234.657,475.951,210.141,475.951z
	 M368.142,475.951c-24.518,0-40.861-16.349-40.861-40.865c0-24.522,21.795-40.862,40.861-40.862
	c21.792,0,40.863,16.34,40.863,40.862C409.005,459.602,392.655,475.951,368.142,475.951z M444.417,168.115v8.171l-2.721,16.346
	l-19.071,117.14c0,5.449-5.448,8.174-8.171,8.174l-225.23,32.172c8.213,9.358,19.666,11.413,29.091,11.413h179.791
	c5.452,0,8.173,5.449,8.173,8.173c0,5.447-5.445,8.173-8.173,8.173H218.314c-24.519,0-49.039-16.346-57.209-43.588l-35.415-190.691
	H84.83c-5.45,0-8.173-2.727-8.173-8.172c0-5.449,5.449-8.173,8.173-8.173h49.034c5.448,0,8.172,2.724,8.172,8.173l8.173,40.86
	h65.379c2.727,0,8.173,2.725,8.173,8.174c0,5.448-5.447,8.172-8.173,8.172h-59.932l21.794,141.657L409.005,301.6l19.064-108.968
	h-65.378c-5.448,0-8.174-2.724-8.174-8.172c0-5.449,5.453-8.174,8.174-8.174h68.105v-8.171c0-5.448,5.448-8.173,8.174-8.173
	C441.696,159.942,447.144,162.667,444.417,168.115z"/>
</svg>
