<?xml version="1.0" encoding="utf-8"?>
<!-- Generator: Adobe Illustrator 15.0.0, SVG Export Plug-In . SVG Version: 6.00 Build 0)  -->
<!DOCTYPE svg PUBLIC "-//W3C//DTD SVG 1.1//EN" "http://www.w3.org/Graphics/SVG/1.1/DTD/svg11.dtd">
<svg version="1.1" id="Calque_1" xmlns="http://www.w3.org/2000/svg" xmlns:xlink="http://www.w3.org/1999/xlink" x="0px" y="0px"
	 width="72px" height="72px" viewBox="0 0 72 72" enable-background="new 0 0 72 72" xml:space="preserve">
<path fill="rgba(133,134,136,1.00)" fill-rule="evenodd" clip-rule="evenodd" d="M65.758,3.363H6.552c-1.814,0-3.303,1.484-3.303,3.298v59.103
	c0,1.814,1.489,3.299,3.303,3.299h59.206c1.813,0,3.297-1.484,3.297-3.299V6.661C69.055,4.847,67.571,3.363,65.758,3.363z
	 M59.957,21.656h-6.089c-2.77,0-2.828,0.332-2.828,2.679l-0.017,6.926h8.934l-0.993,9.381h-8.096v24.246h-10.26V40.643h-6.778
	v-9.381h6.932V22.19c0-4.931,3.88-9.531,10.234-9.531h8.96V21.656z"/>
</svg>