<?xml version="1.0" encoding="utf-8"?>
<!-- Generator: Adobe Illustrator 15.0.0, SVG Export Plug-In . SVG Version: 6.00 Build 0)  -->
<!DOCTYPE svg PUBLIC "-//W3C//DTD SVG 1.1//EN" "http://www.w3.org/Graphics/SVG/1.1/DTD/svg11.dtd">
<svg version="1.1" id="Calque_1" xmlns="http://www.w3.org/2000/svg" xmlns:xlink="http://www.w3.org/1999/xlink" x="0px" y="0px"
	 width="677.081px" height="246.161px" viewBox="0 0 677.081 246.161" enable-background="new 0 0 677.081 246.161"
	 xml:space="preserve">
<g>
	<path fill="rgba(0,0,0,1.00)" d="M571.555,116.818c17.229-1.933,7.836-22.442,6.52-21.956c-11.216,2.651-22.438,5.065-33.927,6.996
		c19.062-25.814,28.974-69.247,19.572-83.481c-8.083-12.544-28.187-7.723-33.925,16.405c-4.442,18.822-7.311,43.669-8.877,70.21
		l-7.048,0.486c-0.519,0-5.739,5.308,1.048,7.236l5.476,1.447c-0.279,5.551-0.517,11.155-0.718,16.764
		c-4.281,12.857-9.408,24.191-13.915,31.402c-6.243,10.139-10.398,8.059-10.143-26.52c0.523-94.375,4.94-114.912,5.458-120.111
		c0.262-1.822-12.737-7.021-20.534,8.059c-6.394,12.563-9.179,50.607-8.526,108.492c-5.537,14.07-12.829,25.178-19.609,30.859
		c-14.037,11.699-29.118,10.141-33.797-10.4c33.797-20.537,63.698-63.175,25.479-70.713c-27.041-4.939-51.477,24.695-49.918,68.374
		c0.519,14.559,5.459,34.057,18.719,38.477c13.78,4.682,29.377-1.559,43.417-18.197c5.743-6.842,11.188-15.246,15.924-24.566
		c0.071,3.699,0.156,7.465,0.253,11.307c0.517,11.439,2.077,28.08,9.101,31.457c8.059,3.381,17.934-3.377,28.075-19.758
		c3.529-5.471,6.661-11.641,9.452-18.133c-0.514,24.063-0.455,47.26-0.276,65.99c0,7.479-0.269,29.189,1.297,29.189
		c11.228,0.725,21.146-12.783,21.146-41.014c-0.262-35.947,0.263-64.9,1.042-88.543C552.244,117.3,563.209,117.78,571.555,116.818z
		 M547.797,47.813c3.398-19.542,8.62-21.956,11.227-17.372c4.186,7.722-2.09,40.289-15.656,63.212
		C544.403,73.63,545.712,59.152,547.797,47.813z M417.569,135.809c1.041-28.34,9.881-50.437,19.5-47.836
		c7.799,2.08,2.339,42.375-19.241,58.234C417.569,143.09,417.311,139.709,417.569,135.809z"/>
	<path fill="rgba(0,0,0,1.00)" d="M344.429,75.87c-34.088-30.627-23.297-54.149,2.244-56.27c15.028-1.288,25.071,8.602,22.616,19.648
		c-4.185,18.339-28.785,11.218-29.173,12.055c-1.355,4.637,8.411,28.358,30.192,17.705c26.339-12.395,21.864-59.049-20.134-56.719
		c-43.756,2.339-59.843,48.791-13.393,91.3c29.791,27.134,38.794,40.304,35.271,58.022c-3.418,16.654-20.5,22.941-37.485,21.146
		c-19.333-2.221-28.885-17.393-27.557-34.508c0.404-9.43,6.973-14.863,17.038-15.375c8.04-0.469,14.443,3.486,14.655,3.193
		c9.223-18.595-16.655-38.009-33.555-23.429c-24.729,21.769-17.07,74.695,25.783,80.039c29.972,3.949,60.68-13.283,59.904-44.895
		C390.429,125.727,380.303,108.305,344.429,75.87z"/>
	<path fill="rgba(0,0,0,1.00)" d="M559.759,171.735c-5.75-0.383-9.33,1.918-10.229,6.906c-0.892,4.73,2.046,8.311,4.479,8.566
		c2.813,0.127,8.053-2.047,10.61-7.289C567.308,174.549,563.472,171.991,559.759,171.735z"/>
	<path fill="rgba(0,0,0,1.00)" d="M673.703,149.102c-2.301,9.719-6.264,19.053-9.462,24.168c-2.938,4.986-5.24,3.963-4.983-13.043
		c0.254-13.17,0.511-22.891,0.892-30.434c2.432,0.256,4.603,0.256,6.523,0c8.44-0.895,3.961-11.892,3.325-11.509
		c-3.325,1.151-6.269,2.046-9.463,2.558c0.769-9.718,1.279-12.659,1.404-13.809c0.131-1.023-7.286-2.686-10.099,3.963
		c-1.023,2.302-1.921,6.266-2.689,11.509l-5.626,0.511c-0.381,0-2.938,2.815,0.388,3.836c1.022,0.385,2.682,0.768,4.728,1.279
		c-0.683,8.412-1.067,19.076-0.923,31.18c-2.68,6.521-6.11,11.662-9.307,14.342c-6.905,5.754-14.322,4.988-16.624-5.113
		c16.624-10.104,31.326-31.074,12.531-34.781c-13.298-2.43-25.318,12.146-24.551,33.629c0.057,1.588,0.229,3.293,0.519,5.012
		c-0.176,0.301-0.353,0.594-0.525,0.871c-3.324,5.371-5.881,3.58-4.983-13.811c0.636-15.473,0.513-22.762-3.967-25.063
		c-3.836-2.174-9.332,0.895-13.299,9.59c-1.915,3.965-3.836,9.975-5.494,15.984c0.767-14.707,2.425-23.4,2.682-25.447
		c0-0.766-8.696-2.557-11.253,4.092c-2.682,6.777-3.325,18.158-2.813,32.225c0,5.627,0.254,13.938,2.688,15.473
		c2.171,1.279,6.394,0.895,7.161,0.127c0.125-0.127,0.256-2.813,0.636-8.951v-0.127c1.922-9.592,5.883-25.064,8.439-30.051
		c2.434-5.115,4.858-3.836,4.092,13.17c-0.381,10.359,0.767,24.17,4.224,25.832c3.766,1.631,8.637-1.553,13.534-9.291
		c1.406,4.305,3.801,8.035,7.566,9.291c6.774,2.301,14.447-0.768,21.352-8.951c2.699-3.215,5.267-7.127,7.521-11.467
		c0.045,1.629,0.096,3.273,0.159,4.945c0.123,5.627,0.892,13.811,4.347,15.473c3.961,1.66,8.952-1.662,13.936-9.719
		c4.99-7.928,8.438-18.797,10.74-28.133C677.54,146.034,674.214,146.672,673.703,149.102z M621.276,160.227
		c0.511-13.939,4.858-24.807,9.586-23.529c3.838,1.023,1.154,20.844-9.461,28.645C621.276,163.807,621.145,162.145,621.276,160.227z
		"/>
	<path fill="rgba(0,0,0,1.00)" d="M152.199,68.683c21.845-9.687,37.576-24.748,65.701-27.857c0.003-0.022,0.007-0.043,0.007-0.062
		c0.779-28.628-23.513-13.626-26.601-11.608c-13.445,9.509-25.452,21.451-38.707,29.539c0.757-33.6-8.094-57.686-24.181-58.677
		c-18.407-0.714-35.464,21.186-30.561,51.759c2.507,14.627,15.445,26.719,32.623,23.649c4.616-0.805,8.686-1.805,12.469-3.037
		c-0.337,6.06-0.67,12.123-1.716,18.785c-7.08,46.646-32.797,75.063-44.417,71.979c-4.282-0.809-8.639-4.482-15.001-47.448
		c1.138-5.896,1.99-12.013,2.551-18.363c5.37-59.011-3.606-75.228-8.178-76.26c-12.88-2.676-20.765,12.646-16.882,59.048
		c1.928,23.069,4.146,41.92,6.422,56.837c0.069,0.465,0.248,1.441,0.486,2.693c-11.105,24.193-25.063,31.031-30.664,27.893
		c-4.766-2.576-8.233-9.922-11.084-98.346c-0.733-30.177,1.809-48.051,2.064-52.24c-0.124-1.815-18.919-4.575-23.609,9.519
		C-0.64,37.389-0.282,54.303,0.569,74.575c2.339,65.263,6.898,104.076,15.095,113.48c10.157,11.686,34.365-1.699,52.69-31.691
		l0.005,0.002l0.908-1.463c3.67,15.674,7.355,25.133,11.205,29.545c13.333,15.447,57.917-26.186,69.223-94.787
		C150.97,82.699,151.697,75.548,152.199,68.683z M132.349,66.828c-15.08,3.082-25.471-5.121-27.536-18.229
		c-1.728-14.718,7.279-24.935,20.615-22.84c10.922,1.597,17.069,16.056,17.552,37.988C139.718,64.913,135.932,66.145,132.349,66.828
		z"/>
	<path fill="rgba(0,0,0,1.00)" d="M284.066,82.774c-9.878-5.202-24.96-2.602-37.179,38.994c1.042-82.412,4.94-101.131,5.46-106.333
		c0.521-1.818-12.74-6.758-20.537,8.321c-6.405,12.582-9.188,50.523-8.523,108.683c-5.528,13.979-12.786,25.014-19.534,30.668
		c-14.041,11.699-29.12,10.141-33.798-10.4c33.798-20.537,63.695-63.175,25.477-70.713c-27.036-4.939-51.476,24.695-49.916,68.374
		c0.521,14.559,5.46,34.057,18.719,38.477c13.778,4.682,29.378-1.559,43.417-18.197c5.712-6.807,11.131-15.158,15.85-24.42
		c0.071,3.652,0.154,7.369,0.25,11.16c0.518,11.439,2.078,28.08,9.101,31.199c8.059,3.639,16.118,0.779,27.816-10.66
		c12.997-12.479,27.298-35.096,31.457-59.277C295.505,99.931,291.866,86.932,284.066,82.774z M168.917,135.809
		c1.039-28.34,9.877-50.437,19.499-47.836c7.797,2.08,2.339,42.375-19.24,58.234C168.917,143.09,168.654,139.709,168.917,135.809z
		 M268.727,130.348c-2.342,24.439-8.059,37.959-14.559,44.459c-5.72,5.979-7.282,0-7.538-25.219c0-0.26,0.256-0.26,0.256-0.521
		c7.541-37.175,14.562-54.856,19.761-46.793C268.986,105.651,270.028,115.79,268.727,130.348z"/>
</g>
</svg>