<?xml version="1.0" encoding="utf-8"?>
<!-- Generator: Adobe Illustrator 15.0.0, SVG Export Plug-In . SVG Version: 6.00 Build 0)  -->
<!DOCTYPE svg PUBLIC "-//W3C//DTD SVG 1.1//EN" "http://www.w3.org/Graphics/SVG/1.1/DTD/svg11.dtd">
<svg version="1.1" id="Calque_1" xmlns="http://www.w3.org/2000/svg" xmlns:xlink="http://www.w3.org/1999/xlink" x="0px" y="0px"
	 width="72px" height="72px" viewBox="0 0 72 72" enable-background="new 0 0 72 72" xml:space="preserve">
<g>
	<path fill="rgba(133,134,136,1.00)" d="M36.075,0.014c-19.847,0-35.994,16.147-35.994,35.994c0,19.848,16.147,35.994,35.994,35.994
		s35.994-16.146,35.994-35.994C72.068,16.161,55.922,0.014,36.075,0.014z M36.075,67.911c-17.592,0-31.904-14.312-31.904-31.903
		S18.483,4.104,36.075,4.104c17.591,0,31.904,14.312,31.904,31.904S53.666,67.911,36.075,67.911z"/>
	<path fill="rgba(133,134,136,1.00)" d="M35.307,48.226c-1.365,0-2.495,0.47-3.39,1.406c-0.896,0.939-1.343,2.134-1.343,3.583
		c0,1.45,0.448,2.645,1.343,3.582s2.025,1.406,3.39,1.406c1.364,0,2.504-0.469,3.422-1.406c0.917-0.938,1.375-2.132,1.375-3.582
		c0-1.449-0.458-2.644-1.375-3.583C37.812,48.695,36.671,48.226,35.307,48.226z"/>
	<path fill="rgba(133,134,136,1.00)" d="M44.263,16.499c-1.067-0.896-2.325-1.567-3.775-2.015c-1.448-0.448-3.028-0.672-4.732-0.672
		c-2.346,0-4.457,0.523-6.333,1.568c-1.877,1.045-3.498,2.377-4.861,3.998l4.094,3.774c0.938-1.023,1.94-1.833,3.006-2.431
		c1.066-0.597,2.26-0.895,3.583-0.895c1.62,0,2.889,0.47,3.805,1.407c0.917,0.939,1.377,2.175,1.377,3.71
		c0,0.981-0.235,1.898-0.704,2.75c-0.471,0.854-1.056,1.717-1.759,2.59c-0.704,0.875-1.45,1.771-2.239,2.687
		c-0.79,0.917-1.493,1.909-2.111,2.974c-0.619,1.067-1.087,2.239-1.407,3.518c-0.32,1.279-0.374,2.687-0.16,4.222h6.46
		c-0.171-1.364-0.055-2.601,0.352-3.71c0.405-1.108,0.938-2.153,1.601-3.134c0.659-0.981,1.406-1.919,2.238-2.815
		c0.832-0.895,1.608-1.833,2.334-2.814c0.726-0.981,1.333-2.015,1.823-3.103c0.49-1.087,0.736-2.313,0.736-3.678
		c0-1.748-0.288-3.283-0.864-4.605C46.149,18.503,45.328,17.394,44.263,16.499z"/>
</g>
</svg>
